<?xml version="1.0" encoding="UTF-8"?>
<svg width="309px" height="310px" viewBox="0 0 309 310" version="1.1" xmlns="http://www.w3.org/2000/svg" xmlns:xlink="http://www.w3.org/1999/xlink">
    <!-- Generator: Sketch 43.1 (39012) - http://www.bohemiancoding.com/sketch -->
    <title>Group 14</title>
    <desc>Created with Sketch.</desc>
    <defs>
        <linearGradient x1="50%" y1="0%" x2="50%" y2="97.4514205%" id="linearGradient-1">
            <stop stop-color="#92CFF3" offset="0%"></stop>
            <stop stop-color="#A2D0E8" offset="24.1110684%"></stop>
            <stop stop-color="#AED0E0" offset="48.6053543%"></stop>
            <stop stop-color="#C2D0D2" offset="59.9203727%"></stop>
            <stop stop-color="#F5D0AE" offset="83.0397003%"></stop>
            <stop stop-color="#DBAA7B" offset="100%"></stop>
        </linearGradient>
        <ellipse id="path-2" cx="144.5" cy="145" rx="144.5" ry="145"></ellipse>
        <linearGradient x1="50%" y1="3.46107276%" x2="50%" y2="98.1006856%" id="linearGradient-4">
            <stop stop-color="#A3BECD" offset="0%"></stop>
            <stop stop-color="#708693" offset="100%"></stop>
        </linearGradient>
        <linearGradient x1="50%" y1="0%" x2="50%" y2="100%" id="linearGradient-5">
            <stop stop-color="#FFD7BD" offset="1.17785395%"></stop>
            <stop stop-color="#BC8B58" offset="98.1006856%"></stop>
        </linearGradient>
        <radialGradient cx="50%" cy="50%" fx="50%" fy="50%" r="100%" gradientTransform="translate(0.500000,0.500000),scale(0.636341,1.000000),rotate(90.000000),translate(-0.500000,-0.500000)" id="radialGradient-6">
            <stop stop-color="#FFFFFF" offset="0%"></stop>
            <stop stop-color="#D8F0FF" offset="100%"></stop>
        </radialGradient>
        <path d="M125.279579,35.5549931 C125.267621,35.5550283 125.255659,35.5550459 125.243693,35.5550459 C118.562757,35.5550459 113.146789,30.0675731 113.146789,23.2984324 C113.146789,16.5292916 118.562757,11.0418188 125.243693,11.0418188 C125.317461,11.0418188 125.391075,11.0424878 125.464529,11.0438202 C127.722136,5.14788853 133.375269,0.967889908 139.991972,0.967889908 C148.467843,0.967889908 155.362581,7.82690039 155.564267,16.3655118 C156.308612,16.1781945 157.087229,16.0787833 157.888761,16.0787833 C163.196902,16.0787833 167.5,20.4386932 167.5,25.8169146 C167.5,31.195136 163.196902,35.5550459 157.888761,35.5550459 C157.844619,35.5550459 157.800546,35.5547444 157.756545,35.5541433 C157.726132,35.5547441 157.695644,35.5550459 157.665086,35.5550459 L125.301657,35.5550459 C125.294294,35.5550459 125.286934,35.5550283 125.279579,35.5549931 Z" id="path-7"></path>
        <polygon id="path-8" points="26.4067174 78.7541997 28.4093914 72.4206934 54.0653943 104.55592 50.6861102 108.883261"></polygon>
        <polygon id="path-9" points="30.7143853 78.7541997 32.7170593 72.4206934 58.3730623 104.55592 54.9937782 108.883261"></polygon>
        <polygon id="path-10" points="26.3728178 114.097415 27.2484967 108.237973 61.1642141 137.823226 61.5393621 144.833505"></polygon>
        <polygon id="path-11" points="23.1420669 113.018263 24.0177458 107.158821 57.9334632 136.744075 58.3086112 143.754353"></polygon>
        <polygon id="path-12" points="34.5446851 36.0977185 38.4147431 36.0977185 35.9715976 52.6094578 31.923194 52.6094578"></polygon>
        <polygon id="path-13" points="31.6982495 56.6554718 35.5683075 56.6554718 33.6632732 70.5434881 29.4619623 70.5434881"></polygon>
        <polygon id="path-14" points="29.1592117 73.3823254 33.0292697 73.3823254 28.8170319 107.718616 25.4433113 107.718616"></polygon>
        <polygon id="path-15" points="24.7157814 108.994336 28.5858394 108.994336 24.2762949 144.142946 20.3376261 144.142946"></polygon>
        <polygon id="path-16" points="60.9162967 109.533912 64.7863547 109.533912 60.4768102 144.682522 56.5381414 144.682522"></polygon>
        <polygon id="path-17" points="55.4079153 73.3823254 59.2779733 73.3823254 55.0657355 107.718616 51.692015 107.718616"></polygon>
        <polygon id="path-18" points="51.2360097 56.6554718 55.1060677 56.6554718 53.2010334 70.5434881 48.9997225 70.5434881"></polygon>
        <rect id="path-19" x="0" y="150.002106" width="85.0764413" height="7.01448699" rx="0.81"></rect>
        <polygon id="path-20" points="48.9289212 36.1515868 52.7989792 36.1515868 50.3558336 52.6633261 46.3074301 52.6633261"></polygon>
        <polygon id="path-21" points="41.7911235 6.88325476 41.7911235 18.4786023 39.714116 31.603555 36.6227364 31.603555"></polygon>
        <polygon id="path-22" points="48.0212667 6.88325476 48.0212667 18.4786023 45.9946532 31.5430931 43.0766791 31.5430931"></polygon>
        <path d="M40.9228452,0 L44.1535961,0 L44.1535961,24.8204924 C44.1535961,24.8204924 44.1535961,26.4806064 42.5382206,26.4806064 C40.9228452,26.4806064 40.9228452,24.8204924 40.9228452,24.8204924 L40.9228452,0 Z" id="path-23"></path>
        <linearGradient x1="50%" y1="0%" x2="50%" y2="100%" id="linearGradient-24">
            <stop stop-color="#1F485F" offset="0%"></stop>
            <stop stop-color="#357FAB" offset="100%"></stop>
        </linearGradient>
        <linearGradient x1="-6.06000392%" y1="100%" x2="-12.111972%" y2="-3.62341948%" id="linearGradient-25">
            <stop stop-color="#3580AC" offset="0%"></stop>
            <stop stop-color="#1C4055" offset="100%"></stop>
        </linearGradient>
        <linearGradient x1="50%" y1="0%" x2="50%" y2="100%" id="linearGradient-26">
            <stop stop-color="#1F475E" offset="0%"></stop>
            <stop stop-color="#357FAB" offset="97.0663265%"></stop>
        </linearGradient>
        <linearGradient x1="50%" y1="0%" x2="50%" y2="100%" id="linearGradient-27">
            <stop stop-color="#1F465D" offset="0%"></stop>
            <stop stop-color="#357FAB" offset="100%"></stop>
        </linearGradient>
        <radialGradient cx="50%" cy="50%" fx="50%" fy="50%" r="96.6776945%" gradientTransform="translate(0.500000,0.500000),scale(1.000000,0.997929),rotate(90.000000),translate(-0.500000,-0.500000)" id="radialGradient-28">
            <stop stop-color="#357EA9" offset="0%"></stop>
            <stop stop-color="#23516C" offset="100%"></stop>
        </radialGradient>
        <ellipse id="path-29" cx="48.1920348" cy="46.6733173" rx="5.11535565" ry="5.12597126"></ellipse>
        <linearGradient x1="50%" y1="0%" x2="50%" y2="98.6467634%" id="linearGradient-30">
            <stop stop-color="#D49B85" offset="0%"></stop>
            <stop stop-color="#E7B6A4" offset="25.4094797%"></stop>
            <stop stop-color="#EDBFAE" offset="36.8394016%"></stop>
            <stop stop-color="#FFD9CB" offset="100%"></stop>
        </linearGradient>
        <linearGradient x1="50%" y1="0%" x2="50%" y2="98.0827487%" id="linearGradient-31">
            <stop stop-color="#327AA5" offset="0%"></stop>
            <stop stop-color="#153D54" offset="100%"></stop>
        </linearGradient>
        <linearGradient x1="50%" y1="0%" x2="50%" y2="100%" id="linearGradient-32">
            <stop stop-color="#DFAB98" offset="0%"></stop>
            <stop stop-color="#FFD9CB" offset="100%"></stop>
        </linearGradient>
        <linearGradient x1="50%" y1="0%" x2="50%" y2="97.391183%" id="linearGradient-33">
            <stop stop-color="#3580AC" offset="0%"></stop>
            <stop stop-color="#1F4A63" offset="100%"></stop>
        </linearGradient>
        <linearGradient x1="50%" y1="0%" x2="50%" y2="97.658243%" id="linearGradient-34">
            <stop stop-color="#FDD6C8" offset="0%"></stop>
            <stop stop-color="#E2B09D" offset="100%"></stop>
        </linearGradient>
        <linearGradient x1="50%" y1="0%" x2="50%" y2="97.4250638%" id="linearGradient-35">
            <stop stop-color="#E2AF9C" offset="0%"></stop>
            <stop stop-color="#FFD9CB" offset="100%"></stop>
        </linearGradient>
        <linearGradient x1="50%" y1="0%" x2="50%" y2="100%" id="linearGradient-36">
            <stop stop-color="#347EAA" offset="0%"></stop>
            <stop stop-color="#143B52" offset="100%"></stop>
        </linearGradient>
        <linearGradient x1="50%" y1="1.92920918%" x2="50%" y2="96.6876594%" id="linearGradient-37">
            <stop stop-color="#E8E8E8" offset="0%"></stop>
            <stop stop-color="#A9A9A9" offset="100%"></stop>
        </linearGradient>
        <linearGradient x1="52.3809524%" y1="0%" x2="50%" y2="100%" id="linearGradient-38">
            <stop stop-color="#337CA8" offset="0%"></stop>
            <stop stop-color="#143C53" offset="100%"></stop>
        </linearGradient>
        <radialGradient cx="50%" cy="26.0542245%" fx="50%" fy="26.0542245%" r="93.3435035%" gradientTransform="translate(0.500000,0.260542),scale(1.000000,0.768085),rotate(90.000000),translate(-0.500000,-0.260542)" id="radialGradient-39">
            <stop stop-color="#FFA98A" offset="0%"></stop>
            <stop stop-color="#6B3A19" offset="100%"></stop>
        </radialGradient>
        <ellipse id="path-40" cx="18.6141562" cy="18.6972151" rx="5.4291289" ry="5.4533544"></ellipse>
        <radialGradient cx="50%" cy="22.8120882%" fx="50%" fy="22.8120882%" r="97.8216677%" gradientTransform="translate(0.500000,0.228121),scale(0.704573,1.000000),rotate(90.000000),translate(-0.500000,-0.228121)" id="radialGradient-41">
            <stop stop-color="#D26740" offset="0%"></stop>
            <stop stop-color="#6F3622" offset="100%"></stop>
        </radialGradient>
        <linearGradient x1="50%" y1="0%" x2="50%" y2="98.0070153%" id="linearGradient-42">
            <stop stop-color="#3684B2" offset="0%"></stop>
            <stop stop-color="#1E4861" offset="100%"></stop>
        </linearGradient>
        <ellipse id="path-43" cx="13.1850273" cy="13.2438607" rx="3.84563297" ry="3.8627927"></ellipse>
        <linearGradient x1="93.26763%" y1="54.7100641%" x2="3.9621828%" y2="60.186456%" id="linearGradient-44">
            <stop stop-color="#D26740" offset="0%"></stop>
            <stop stop-color="#D67E5E" offset="51.0695838%"></stop>
            <stop stop-color="#D26740" offset="100%"></stop>
        </linearGradient>
        <linearGradient x1="100%" y1="50%" x2="-5.93756162%" y2="50%" id="linearGradient-45">
            <stop stop-color="#573F2F" offset="0%"></stop>
            <stop stop-color="#804F2E" offset="100%"></stop>
        </linearGradient>
        <linearGradient x1="-1.04875101%" y1="24.3551294%" x2="93.7396579%" y2="16.3183017%" id="linearGradient-46">
            <stop stop-color="#814F2E" offset="0%"></stop>
            <stop stop-color="#573F2F" offset="100%"></stop>
        </linearGradient>
        <linearGradient x1="0%" y1="0%" x2="135.592577%" y2="0%" id="linearGradient-47">
            <stop stop-color="#82502D" offset="0%"></stop>
            <stop stop-color="#45382F" offset="100%"></stop>
        </linearGradient>
        <linearGradient x1="50%" y1="0%" x2="50%" y2="96.3428731%" id="linearGradient-48">
            <stop stop-color="#F7B049" offset="0%"></stop>
            <stop stop-color="#8F672E" offset="100%"></stop>
        </linearGradient>
        <linearGradient x1="50%" y1="0%" x2="50%" y2="100%" id="linearGradient-49">
            <stop stop-color="#F4AF49" offset="0%"></stop>
            <stop stop-color="#8F682F" offset="100%"></stop>
        </linearGradient>
        <linearGradient x1="50%" y1="0%" x2="50%" y2="100%" id="linearGradient-50">
            <stop stop-color="#F4AF49" offset="0%"></stop>
            <stop stop-color="#77592F" offset="100%"></stop>
        </linearGradient>
    </defs>
    <g id="Page-1" stroke="none" stroke-width="1" fill="none" fill-rule="evenodd">
        <g id="Desktop" transform="translate(-688.000000, -1059.000000)">
            <g id="Group-14" transform="translate(698.000000, 1069.000000)">
                <mask id="mask-3" fill="white">
                    <use xlink:href="#path-2"></use>
                </mask>
                <g id="Mask">
                    <use fill="url(#linearGradient-1)" fill-rule="evenodd" xlink:href="#path-2"></use>
                    <ellipse stroke="#FFFFFF" stroke-width="10" cx="144.5" cy="145" rx="149.5" ry="150"></ellipse>
                </g>
                <g id="Group-57" mask="url(#mask-3)">
                    <g transform="translate(-23.000000, 13.000000)">
                        <g id="Group-13" stroke-width="1" fill="none" fill-rule="evenodd" transform="translate(144.300459, 227.114679)">
                            <path d="M6.65658478,1.51234784e-13 L23.7402797,1.51234784e-13 C23.7402797,1.51234784e-13 28.1584252,1.00735329 31.9222353,10.5124448 C33.5468927,14.6153396 32.9232053,21.4974824 33.8282617,29.1380793 C34.733318,36.7786763 42.6626218,48.264295 42.6626218,48.264295 C42.6626218,48.264295 25.2461284,50.4286085 18.672025,50.4286085 C12.0979216,50.4286085 0.987596921,49.445491 0.987596921,49.445491 C0.987596921,49.445491 -1.06937684,41.2840595 2.47541019,31.2087792 C6.02019721,21.1334988 12.9974893,20.0100897 11.3028938,11.7883623 C9.01417198,0.684090941 6.65658478,1.51234784e-13 6.65658478,1.51234784e-13 Z" id="Rectangle-19" fill="#DDA08A"></path>
                            <polygon id="Rectangle-22" fill="#CB886F" points="8.50653006 2.4740999 16.950766 1.66350486 17.4253384 3.55763319 9.17977322 4.02416155"></polygon>
                            <polygon id="Rectangle-23" fill="#CA876F" points="13.9197248 10.3149815 21.7296852 9.69538641 21.7296852 11.3811908 13.9197248 12.0560431"></polygon>
                            <rect id="Rectangle-23" fill="#CA876F" x="25.8509174" y="17.293578" width="7.2912844" height="2.66055046"></rect>
                            <polygon id="Rectangle-23" fill="#CA876F" points="7.9736977 21.9495413 15.2454128 21.9495413 15.2454128 24.6100917 5.9476969 24.6100917"></polygon>
                            <polygon id="Rectangle-22" fill="#CB886F" transform="translate(27.037005, 6.492879) scale(-1, -1) translate(-27.037005, -6.492879) " points="23.8623853 6.18636885 29.8845418 5.33733624 30.2116244 7.23146457 24.7152275 7.64842175"></polygon>
                            <polygon id="Rectangle-23" fill="#CA876F" points="12.5940367 34.2036962 20.4039971 33.2568807 20.4039971 35.8329915 12.5940367 36.8642466"></polygon>
                            <rect id="Rectangle-23" fill="#CA876F" x="29.8279817" y="40.5733945" width="7.2912844" height="2.66055046"></rect>
                            <polygon id="Rectangle-23" fill="#CA876F" points="11.9686614 45.2293578 19.2403765 45.2293578 19.2403765 47.8899083 9.94266055 47.8899083"></polygon>
                            <polygon id="Rectangle-22" fill="#CB886F" transform="translate(27.037005, 28.426185) scale(-1, -1) translate(-27.037005, -28.426185) " points="23.8623853 28.1196748 29.8845418 27.2706422 30.2116244 29.1647705 24.7152275 29.5817277"></polygon>
                        </g>
                        <path d="M279.036355,78.9796593 C292.267043,87.8804166 331.235182,177.229358 331.235182,177.229358 L0.463302752,177.229358 C0.463302752,177.229358 35.1812949,117.074177 45.2943057,111.075974 C52.3810291,106.872715 66.768668,130.999012 74.2079946,136.421342 C77.0515994,138.493971 103.794878,76.4606389 117.806406,76.4606389 C131.817934,76.4606389 157.023896,136.567258 161.226223,142.098256 C162.897621,144.298107 190.346237,93.8387883 196.031563,96.981881 C208.894641,104.093143 229.228408,132.9085 234.445868,132.9085 C239.663329,132.9085 265.805666,70.078902 279.036355,78.9796593 Z" id="Rectangle-22" fill="url(#linearGradient-4)" fill-rule="evenodd"></path>
                        <path d="M310.167002,107.658095 C324.372522,117.214656 366.211816,213.146789 366.211816,213.146789 L11.0688073,213.146789 C11.0688073,213.146789 48.3448063,148.559401 59.2029393,142.119252 C66.8118094,137.606299 82.2595234,163.510211 90.2469764,169.332056 C93.3000968,171.557395 122.013809,104.953474 137.0577,104.953474 C152.101591,104.953474 179.164718,169.488723 183.676671,175.427242 C185.471216,177.789178 214.942234,123.612038 221.046453,126.986713 C234.857277,134.62193 256.689227,165.560389 262.291108,165.560389 C267.892989,165.560389 295.961482,98.1015336 310.167002,107.658095 Z" id="Rectangle-22" fill="url(#linearGradient-5)" fill-rule="evenodd" transform="translate(188.640312, 159.050132) scale(-1, 1) translate(-188.640312, -159.050132) "></path>
                        <polygon id="Rectangle-61" fill="#826340" fill-rule="evenodd" transform="translate(60.532336, 186.174768) scale(-1, 1) translate(-60.532336, -186.174768) " points="56.9677195 173.203688 70.1311664 145.302752 76.1808691 171.464413 72.5100592 169.522544 79.0397026 191.455047 72.5100592 187.352178 80.9947291 203.868397 72.5100592 200.056326 82.8192594 217.068694 72.5100592 214.557633 80.9947291 227.046784 38.2454128 227.046784 52.1127773 212.845019 41.8082282 219.658509 54.9752358 201.846594 46.4966073 206.769486 58.736668 187.352178 52.1127773 189.571004 62.7937465 171.464413"></polygon>
                        <polygon id="Rectangle-61" fill="#9C764C" fill-rule="evenodd" transform="translate(73.332769, 201.140364) scale(-1, 1) translate(-73.332769, -201.140364) " points="71.0733638 192.918743 79.4169155 175.233945 83.2514739 191.816316 80.9247587 190.585478 85.063524 204.48723 80.9247587 201.886657 86.3027028 212.355338 80.9247587 209.939085 87.4591676 220.722246 80.9247587 219.13063 86.3027028 227.046784 59.2063707 227.046784 67.9960952 218.045102 61.4646344 222.363781 69.810443 211.073833 64.4363282 214.194171 72.1945985 201.886657 67.9960952 203.293043 74.7661471 191.816316"></polygon>
                        <polyline id="Rectangle-61" fill="#826340" fill-rule="evenodd" points="247.441091 160.672521 231.711769 126.278065 224.482832 158.528456 228.869172 156.134647 221.066743 183.171609 228.869172 178.113859 218.730634 198.473978 228.869172 193.774705 216.550459 214.746444 228.869172 211.650972 218.730634 227.046784 269.812829 227.046784 253.242379 209.539773 265.555534 217.938999 249.821958 195.981631 259.953277 202.050251 245.327331 178.113859 253.242379 180.849083 240.47943 158.528456"></polyline>
                        <polyline id="Rectangle-61" fill="#9C764C" fill-rule="evenodd" points="264.90665 171.889351 251.835484 143.307339 245.828192 170.107619 249.473268 168.118349 242.9894 190.586235 249.473268 186.383213 241.048079 203.302601 249.473268 199.397475 239.236339 216.825124 249.473268 214.252767 241.048079 227.046784 283.497706 227.046784 269.727557 212.498346 279.959868 219.478157 266.885166 201.231445 275.304356 206.274507 263.150103 186.383213 269.727557 188.656201 259.121466 170.107619"></polyline>
                        <g id="Combined-Shape" fill="none">
                            <use fill="url(#radialGradient-6)" fill-rule="evenodd" xlink:href="#path-7"></use>
                            <path stroke="#81ADC8" stroke-width="1" d="M125.278108,35.0549952 C125.260904,35.0550374 125.260904,35.0550374 125.243693,35.0550459 C118.840378,35.0550459 113.646789,29.792888 113.646789,23.2984324 C113.646789,16.8039767 118.840378,11.5418188 125.243693,11.5418188 C125.314361,11.5418188 125.384952,11.542459 125.455461,11.543738 L125.806072,11.5500976 L125.931468,11.2226156 C128.164818,5.39003203 133.716971,1.46788991 139.991972,1.46788991 C148.180155,1.46788991 154.868747,8.09384436 155.064406,16.3773188 L155.079189,17.0031728 L155.686289,16.8503938 C156.40074,16.6705996 157.138597,16.5787833 157.888761,16.5787833 C162.919281,16.5787833 167,20.7133782 167,25.8169146 C167,30.9204509 162.919281,35.0550459 157.888761,35.0550459 C157.825998,35.0549029 157.825998,35.0549029 157.763375,35.0541899 C157.70595,35.0549112 157.70595,35.0549112 157.665086,35.0550459 L125.301657,35.0550459 C125.29181,35.055038 125.29181,35.055038 125.28197,35.0549988 L125.278108,35.0549952 Z"></path>
                        </g>
                    </g>
                </g>
                <g id="Group-12" mask="url(#mask-3)">
                    <g transform="translate(44.410550, 31.926606)">
                        <g id="Group-47" stroke="none" stroke-width="1" fill="none" fill-rule="evenodd">
                            <g id="Group-11" transform="translate(5.384585, 51.799289)">
                                <g id="Rectangle-21" transform="translate(40.236056, 90.651977) scale(-1, 1) translate(-40.236056, -90.651977) ">
                                    <use fill="#B65A38" fill-rule="evenodd" xlink:href="#path-8"></use>
                                    <path stroke="#9D4C2F" stroke-width="0.81" d="M26.8583583,78.6692026 L28.5666275,73.2667588 L53.5493674,104.558695 L50.6811248,108.231622 L26.8583583,78.6692026 Z"></path>
                                </g>
                                <g id="Rectangle-21">
                                    <use fill="#C7623D" fill-rule="evenodd" xlink:href="#path-9"></use>
                                    <path stroke="#9D4C2F" stroke-width="0.81" d="M31.1660262,78.6692026 L32.8742954,73.2667588 L57.8570353,104.558695 L54.9887927,108.231622 L31.1660262,78.6692026 Z"></path>
                                </g>
                                <g id="Rectangle-21">
                                    <use fill="#B65A39" fill-rule="evenodd" xlink:href="#path-10"></use>
                                    <path stroke="#9D4C2F" stroke-width="0.81" d="M26.8061059,113.938227 L27.5397116,109.029441 L60.7689433,138.015861 L61.0836851,143.897348 L26.8061059,113.938227 Z"></path>
                                </g>
                                <g id="Rectangle-21" transform="translate(40.725339, 125.456587) scale(-1, 1) translate(-40.725339, -125.456587) ">
                                    <use fill="#C7623D" fill-rule="evenodd" xlink:href="#path-11"></use>
                                    <path stroke="#9D4C2F" stroke-width="0.81" d="M23.575355,112.859075 L24.3089607,107.950289 L57.5381923,136.936709 L57.8529342,142.818196 L23.575355,112.859075 Z"></path>
                                </g>
                                <g id="Rectangle-125">
                                    <use fill="#C7623D" fill-rule="evenodd" xlink:href="#path-12"></use>
                                    <path stroke="#9D4C2F" stroke-width="0.81" d="M34.8904577,36.5027185 L37.9454082,36.5027185 L35.6221136,52.2044578 L32.3975664,52.2044578 L34.8904577,36.5027185 Z"></path>
                                </g>
                                <g id="Rectangle-125">
                                    <use fill="#C7623D" fill-rule="evenodd" xlink:href="#path-13"></use>
                                    <path stroke="#9D4C2F" stroke-width="0.81" d="M32.0432522,57.0604718 L35.1039608,57.0604718 L33.3100351,70.1384881 L29.9373934,70.1384881 L32.0432522,57.0604718 Z"></path>
                                </g>
                                <g id="Rectangle-125">
                                    <use fill="#C7623D" fill-rule="evenodd" xlink:href="#path-14"></use>
                                    <path stroke="#9D4C2F" stroke-width="0.81" d="M29.522747,73.7873254 L32.5715498,73.7873254 L28.4586796,107.313616 L25.8945055,107.313616 L29.522747,73.7873254 Z"></path>
                                </g>
                                <g id="Rectangle-125">
                                    <use fill="#C7623D" fill-rule="evenodd" xlink:href="#path-15"></use>
                                    <path stroke="#9D4C2F" stroke-width="0.81" d="M25.0734639,109.399336 L28.1281499,109.399336 L23.9179188,143.737946 L20.7962032,143.737946 L25.0734639,109.399336 Z"></path>
                                </g>
                                <g id="Rectangle-125" transform="translate(60.662248, 127.108217) scale(-1, 1) translate(-60.662248, -127.108217) ">
                                    <use fill="#C7623D" fill-rule="evenodd" xlink:href="#path-16"></use>
                                    <path stroke="#9D4C2F" stroke-width="0.81" d="M61.2739792,109.938912 L64.3286651,109.938912 L60.1184341,144.277522 L56.9967185,144.277522 L61.2739792,109.938912 Z"></path>
                                </g>
                                <g id="Rectangle-125" transform="translate(55.484994, 90.550471) scale(-1, 1) translate(-55.484994, -90.550471) ">
                                    <use fill="#C7623D" fill-rule="evenodd" xlink:href="#path-17"></use>
                                    <path stroke="#9D4C2F" stroke-width="0.81" d="M55.7714506,73.7873254 L58.8202534,73.7873254 L54.7073832,107.313616 L52.1432091,107.313616 L55.7714506,73.7873254 Z"></path>
                                </g>
                                <g id="Rectangle-125" transform="translate(52.052895, 63.599480) scale(-1, 1) translate(-52.052895, -63.599480) ">
                                    <use fill="#C7623D" fill-rule="evenodd" xlink:href="#path-18"></use>
                                    <path stroke="#9D4C2F" stroke-width="0.81" d="M51.5810124,57.0604718 L54.641721,57.0604718 L52.8477953,70.1384881 L49.4751536,70.1384881 L51.5810124,57.0604718 Z"></path>
                                </g>
                                <rect id="Rectangle-126" fill="#9D4C2F" x="28.5382999" y="70.1448699" width="26.9229245" height="3.77703145" rx="0.81"></rect>
                                <rect id="Rectangle-126" fill="#9D4C2F" x="23.153715" y="106.836033" width="38.7690112" height="3.77703145" rx="0.81"></rect>
                                <rect id="Rectangle-126" fill="#585858" x="4.30766791" y="142.448043" width="76.4611054" height="8.09363883" rx="0.81"></rect>
                                <g id="Rectangle-126">
                                    <use fill="#908D8D" fill-rule="evenodd" xlink:href="#path-19"></use>
                                    <rect stroke="#585858" stroke-width="0.81" x="0.405" y="150.407106" width="84.2664413" height="6.20448699" rx="0.81"></rect>
                                </g>
                                <g id="Rectangle-125" transform="translate(49.553205, 44.407456) scale(-1, 1) translate(-49.553205, -44.407456) ">
                                    <use fill="#C7623D" fill-rule="evenodd" xlink:href="#path-20"></use>
                                    <path stroke="#9D4C2F" stroke-width="0.81" d="M49.2746938,36.5565868 L52.3296443,36.5565868 L50.0063497,52.2583261 L46.7818025,52.2583261 L49.2746938,36.5565868 Z"></path>
                                </g>
                                <rect id="Rectangle-124" fill="#9D4C2F" x="29.0767584" y="51.7992885" width="26.384466" height="7.55406291" rx="1.62"></rect>
                                <g id="Rectangle-123">
                                    <use fill="#908D8D" fill-rule="evenodd" xlink:href="#path-21"></use>
                                    <path stroke="#585858" stroke-width="0.81" d="M41.3861235,10.7993546 L41.3861235,18.4786023 L39.3682988,31.198555 L37.1211687,31.198555 L41.3861235,10.7993546 Z"></path>
                                </g>
                                <g id="Rectangle-123" transform="translate(45.548973, 19.213174) scale(-1, 1) translate(-45.548973, -19.213174) ">
                                    <use fill="#908D8D" fill-rule="evenodd" xlink:href="#path-22"></use>
                                    <path stroke="#585858" stroke-width="0.81" d="M47.6162667,10.9631216 L47.6162667,18.4786023 L45.6477623,31.1380931 L43.5709477,31.1380931 L47.6162667,10.9631216 Z"></path>
                                </g>
                                <g id="Rectangle-122">
                                    <use fill="#C7623D" fill-rule="evenodd" xlink:href="#path-23"></use>
                                    <path stroke="#9D4C2F" stroke-width="0.81" d="M41.3278452,0.405 L43.7485961,0.405 L43.7485961,24.8204924 C43.7485961,24.9720886 43.7072077,25.2272967 43.5874895,25.4733643 C43.400233,25.8582497 43.0829843,26.0756064 42.5382206,26.0756064 C41.993457,26.0756064 41.6762083,25.8582497 41.4889517,25.4733643 C41.3692336,25.2272967 41.3278452,24.9720886 41.3278452,24.8204924 L41.3278452,0.405 Z"></path>
                                </g>
                                <rect id="Rectangle-124" fill="#9D4C2F" x="33.9228848" y="30.7558276" width="16.6922132" height="5.93533514" rx="1.62"></rect>
                            </g>
                            <g id="Group-46" transform="translate(22.076798, 0.000000)" fill="url(#linearGradient-24)">
                                <path d="M36.6151773,0.539575922 C36.8576294,-0.411154744 47.2829678,3.68039416 47.0195857,4.39062599 C46.7562036,5.10085783 27.8643363,42.475582 27.8643363,42.475582 L25.8191018,41.7493443 C25.8191018,41.7493443 36.3727251,1.49030659 36.6151773,0.539575922 Z" id="Rectangle-121"></path>
                                <path d="M12.0998484,1.65474209 C12.3423005,0.704011424 22.7676388,4.79556032 22.5042568,5.50579216 C22.2408747,6.216024 4.19558518,44.2508536 4.19558518,44.2508536 L2.15725854,43.1510275 C2.15725854,43.1510275 11.8573962,2.60547276 12.0998484,1.65474209 Z" id="Rectangle-121" transform="translate(12.333211, 22.881548) scale(-1, 1) rotate(5.000000) translate(-12.333211, -22.881548) "></path>
                            </g>
                            <g id="Group-46" transform="translate(47.384347, 70.684446) scale(1, -1) rotate(3.000000) translate(-47.384347, -70.684446) translate(23.692174, 48.022257)" fill="url(#linearGradient-25)">
                                <path d="M36.6151773,0.539575922 C36.8576294,-0.411154744 47.2829678,3.68039416 47.0195857,4.39062599 C46.7562036,5.10085783 27.8643363,42.475582 27.8643363,42.475582 L25.8191018,41.7493443 C25.8191018,41.7493443 36.3727251,1.49030659 36.6151773,0.539575922 Z" id="Rectangle-121"></path>
                                <path d="M12.0998484,1.65474209 C12.3423005,0.704011424 22.7676388,4.79556032 22.5042568,5.50579216 C22.2408747,6.216024 4.19558518,44.2508536 4.19558518,44.2508536 L2.15725854,43.1510275 C2.15725854,43.1510275 11.8573962,2.60547276 12.0998484,1.65474209 Z" id="Rectangle-121" transform="translate(12.333211, 22.881548) scale(-1, 1) rotate(5.000000) translate(-12.333211, -22.881548) "></path>
                            </g>
                            <g id="Group-46" transform="translate(71.150725, 46.535845) scale(1, -1) rotate(94.000000) translate(-71.150725, -46.535845) translate(47.458552, 23.873657)" fill="url(#linearGradient-26)">
                                <path d="M36.6151773,0.539575922 C36.8576294,-0.411154744 47.2829678,3.68039416 47.0195857,4.39062599 C46.7562036,5.10085783 27.8643363,42.475582 27.8643363,42.475582 L25.8191018,41.7493443 C25.8191018,41.7493443 36.3727251,1.49030659 36.6151773,0.539575922 Z" id="Rectangle-121"></path>
                                <path d="M12.0998484,1.65474209 C12.3423005,0.704011424 22.7676388,4.79556032 22.5042568,5.50579216 C22.2408747,6.216024 4.19558518,44.2508536 4.19558518,44.2508536 L2.15725854,43.1510275 C2.15725854,43.1510275 11.8573962,2.60547276 12.0998484,1.65474209 Z" id="Rectangle-121" transform="translate(12.333211, 22.881548) scale(-1, 1) rotate(5.000000) translate(-12.333211, -22.881548) "></path>
                            </g>
                            <g id="Group-46" transform="translate(24.304837, 46.535845) scale(-1, 1) rotate(94.000000) translate(-24.304837, -46.535845) translate(0.612663, 23.873657)" fill="url(#linearGradient-27)">
                                <path d="M36.6151773,0.539575922 C36.8576294,-0.411154744 47.2829678,3.68039416 47.0195857,4.39062599 C46.7562036,5.10085783 27.8643363,42.475582 27.8643363,42.475582 L25.8191018,41.7493443 C25.8191018,41.7493443 36.3727251,1.49030659 36.6151773,0.539575922 Z" id="Rectangle-121"></path>
                                <path d="M12.0998484,1.65474209 C12.3423005,0.704011424 22.7676388,4.79556032 22.5042568,5.50579216 C22.2408747,6.216024 4.19558518,44.2508536 4.19558518,44.2508536 L2.15725854,43.1510275 C2.15725854,43.1510275 11.8573962,2.60547276 12.0998484,1.65474209 Z" id="Rectangle-121" transform="translate(12.333211, 22.881548) scale(-1, 1) rotate(5.000000) translate(-12.333211, -22.881548) "></path>
                            </g>
                            <g id="Oval-61">
                                <use fill="url(#radialGradient-28)" fill-rule="evenodd" xlink:href="#path-29"></use>
                                <ellipse stroke="#1E4862" stroke-width="0.81" cx="48.1920348" cy="46.6733173" rx="5.52035565" ry="5.53097126"></ellipse>
                            </g>
                        </g>
                        <g id="Group-3" stroke="none" stroke-width="1" fill="none" fill-rule="evenodd" transform="translate(48.749315, 73.921901)">
                            <rect id="Rectangle-2" fill="url(#linearGradient-30)" x="25.2066699" y="81.1106895" width="75.2322148" height="54.1440187"></rect>
                            <polygon id="Rectangle-7" fill="url(#linearGradient-31)" points="76.3955995 101.755531 82.2125234 96.8598418 82.2125234 120.063221 76.3955995 120.063221"></polygon>
                            <polygon id="Rectangle-7" fill="url(#linearGradient-31)" transform="translate(62.628880, 108.462565) scale(-1, 1) translate(-62.628880, -108.462565) " points="59.7204179 101.799453 65.5373417 96.8487754 65.5373417 120.076355 59.7204179 120.076355"></polygon>
                            <g id="Group" transform="translate(84.927088, 0.000000)">
                                <rect id="Rectangle-89" fill="url(#linearGradient-32)" x="3.61941927" y="45.7511708" width="20.8116608" height="89.1140121"></rect>
                                <rect id="Rectangle-89" fill="url(#linearGradient-32)" x="3.61941927" y="45.7511708" width="20.8116608" height="89.1140121"></rect>
                                <path d="M13.8100931,0.48979672 C13.8100931,0.48979672 16.8776833,16.9412707 19.5500597,27.7336507 C22.2224361,38.5260307 27.1456445,56.1810694 27.1456445,56.1810694 L0,56.1810694 C0,56.1810694 6.18456922,37.9025108 8.61045067,27.7336507 C11.0363321,17.5647906 13.8100931,0.48979672 13.8100931,0.48979672 Z" id="Rectangle-90" fill="url(#linearGradient-33)"></path>
                            </g>
                            <path d="M20.9409258,56.96012 C20.9409258,56.1969426 22.6967777,57.2749232 24.6249775,57.2749232 C26.5531773,57.2749232 28.3090293,56.96012 28.3090293,56.96012 L28.3090293,69.0354048 L20.9409258,69.0354048 C20.9409258,69.0354048 20.9409258,57.7232974 20.9409258,56.96012 Z" id="Rectangle-91" fill="url(#linearGradient-34)"></path>
                            <rect id="Rectangle-3" fill="url(#linearGradient-35)" x="8.9192832" y="93.5754996" width="16.2873867" height="41.6792087"></rect>
                            <path d="M11.7375355,65.9192023 L18.8241541,62.1998444 L27.1860342,66.4824106 L25.5944648,103.313632 C25.5944648,103.313632 18.0263126,104.87574 14.1545146,104.87574 C10.2827167,104.87574 0.203233535,102.113642 0.203233535,102.113642 C0.203233535,102.113642 7.17434772,92.4558344 9.3261986,83.5377921 C11.4780495,74.6197498 11.7375355,65.9192023 11.7375355,65.9192023 Z" id="Rectangle-88" fill="url(#linearGradient-36)"></path>
                            <path d="M16.8817397,10.665024 C15.2514085,7.07112112 13.4715518,3.93772493 9.45624789,1.13346893 C5.440944,-1.67078707 15.6267983,2.35643469 18.7008787,6.23217837 C21.774959,10.107922 23.6419343,16.2818251 23.7198841,19.1167977 C23.9554827,27.6853284 21.2545466,33.4694041 21.8417724,39.5434378 C23.2206079,53.8055693 25.4921466,52.1111084 25.2067114,52.5088811 C24.3503988,53.7022094 20.1804475,49.0780623 19.241064,45.2106041 C18.8240324,43.4936778 17.7221395,33.3058932 19.241064,26.670279 C20.7599885,20.0346649 18.512071,14.2589268 16.8817397,10.665024 Z" id="Rectangle-4" fill="url(#linearGradient-37)"></path>
                            <path d="M36.4527226,104.871734 C36.4527226,104.871734 38.3972969,101.838937 44.596416,101.838937 C50.7955351,101.838937 52.7401093,104.871734 52.7401093,104.871734 L52.7401093,135.254708 L36.4527226,135.254708 L36.4527226,112.180061 L36.4527226,104.871734 Z" id="Rectangle-5" fill="url(#linearGradient-38)"></path>
                            <rect id="Rectangle-6" fill="#2B4E62" x="39.555082" y="109.156512" width="3.87794922" height="11.6857594"></rect>
                            <rect id="Rectangle-6" fill="#2B4E62" x="46.1475957" y="109.156512" width="3.87794922" height="11.6857594"></rect>
                            <ellipse id="Oval-15" fill="#E2C982" cx="50.6072373" cy="122.984661" rx="1" ry="1"></ellipse>
                            <path d="M65.5373417,101.755531 C65.5373417,101.755531 66.7742193,96.0528871 70.9664706,96.0528871 C75.158722,96.0528871 76.3955995,101.755531 76.3955995,101.755531 L76.3955995,120.063221 L65.5373417,120.063221 L65.5373417,101.755531 Z" id="Rectangle-92" fill="#BD816B"></path>
                            <rect id="Rectangle-93" fill="#4B7892" x="65.9251367" y="107.987936" width="10.1092225" height="11.6857594"></rect>
                            <path d="M65.9251367,101.755531 C65.9251367,101.755531 66.9597726,96.3959004 70.9797479,96.3959004 C74.9997233,96.3959004 76.0343592,101.755531 76.0343592,101.755531 L76.0343592,107.598411 L65.9251367,107.598411 L65.9251367,101.755531 Z" id="Rectangle-93" fill="#4B7892"></path>
                            <rect id="Rectangle-94" fill="#DEA08A" x="25.9822597" y="95.5231262" width="13.5728223" height="3.89525315"></rect>
                            <rect id="Rectangle-94" fill="#DEA08A" x="71.3542656" y="122.010848" width="13.5728223" height="3.89525315"></rect>
                            <rect id="Rectangle-94" fill="#DEA08A" x="88.4172421" y="90.8488224" width="13.5728223" height="3.89525315"></rect>
                            <rect id="Rectangle-94" fill="#DEA08A" x="95.7853456" y="60.0763225" width="13.5728223" height="3.89525315"></rect>
                            <rect id="Rectangle-94" fill="#DEA08A" x="100.82668" y="100.19743" width="8.53148827" height="3.89525315"></rect>
                            <rect id="Rectangle-94" fill="#DEA08A" x="25.9822597" y="100.976481" width="8.53148827" height="3.89525315"></rect>
                            <rect id="Rectangle-94" fill="#DEA08A" x="11.6338476" y="109.546037" width="13.5728223" height="3.89525315"></rect>
                            <rect id="Rectangle-94" fill="#DEA08A" x="16.6751816" y="114.999392" width="8.53148827" height="3.89525315"></rect>
                            <polygon id="Rectangle-8" fill="#DC9F89" points="25.2066699 60.4658479 27.6187899 60.4658479 27.4843878 62.0239491 25.2066699 62.0239491"></polygon>
                            <path d="M119.194057,93.1883184 C127.364191,82.7978512 143.704459,82.7978512 151.874593,93.1883184 C160.044727,103.578786 151.874593,134.750187 151.874593,134.750187 C151.874593,134.750187 141.704054,137.398658 135.534325,137.398658 C129.364596,137.398658 119.194057,134.750187 119.194057,134.750187 C119.194057,134.750187 111.023923,103.578786 119.194057,93.1883184 Z" id="Rectangle-96" fill="url(#radialGradient-39)"></path>
                            <path d="M131.268581,99.613142 C131.268581,99.613142 155.045894,72.9391824 155.899084,73.8772393 C156.752274,74.8152961 146.572508,112.953402 146.572508,112.953402" id="Line" stroke="#796969" stroke-width="2.916" stroke-linecap="square"></path>
                            <ellipse id="Oval" fill="#979797" cx="155.529346" cy="73.8453604" rx="3.68405175" ry="3.70049049"></ellipse>
                            <ellipse id="Oval" stroke="#796969" stroke-width="0.5832" cx="155.562608" cy="73.8749158" rx="1.81033901" ry="1.81971814"></ellipse>
                            <g id="Group-2" transform="translate(111.999366, 84.713420)">
                                <ellipse id="Oval-16" stroke="#D26740" stroke-width="2.916" cx="18.6141562" cy="18.6972151" rx="17.1561562" ry="17.2392151"></ellipse>
                                <g id="Oval-16">
                                    <use fill="#D26740" fill-rule="evenodd" xlink:href="#path-40"></use>
                                    <ellipse stroke="#D26740" stroke-width="2.916" cx="18.6141562" cy="18.6972151" rx="3.9711289" ry="3.9953544"></ellipse>
                                </g>
                                <path d="M18.6141562,0.973813286 L18.6141562,36.0310916" id="Line" stroke="#D26740" stroke-width="2.3328" stroke-linecap="square"></path>
                                <path d="M30.6357988,6.23240503 L7.36810351,31.1620252" id="Line" stroke="#D26740" stroke-width="2.3328" stroke-linecap="square"></path>
                                <path d="M34.513748,19.0867404 L2.32676953,19.0867404" id="Line" stroke="#D26740" stroke-width="2.3328" stroke-linecap="square"></path>
                                <path d="M31.6522473,29.9822458 L5.81692382,8.18003161" id="Line" stroke="#D26740" stroke-width="2.3328" stroke-linecap="square"></path>
                            </g>
                            <path d="M109.358168,108.766987 C109.358168,108.766987 114.047808,107.743008 114.047808,111.073437 C114.047808,114.403866 114.047808,117.264873 114.047808,120.254283 C114.047808,123.243693 109.358168,121.621322 109.358168,121.621322 L109.358168,108.766987 Z" id="Rectangle-95" fill="#D26740"></path>
                            <path d="M114.011707,110.820058 C114.011707,110.820058 117.342403,110.092803 117.342403,112.458155 C117.342403,114.823506 117.342403,116.855462 117.342403,118.978613 C117.342403,121.101765 114.011707,119.949518 114.011707,119.949518 L114.011707,110.820058 Z" id="Rectangle-95" fill="#9D4C2F"></path>
                            <path d="M114.399502,122.010848 C119.634733,118.407738 130.105196,118.407738 135.340428,122.010848 C140.575659,125.613957 135.340428,136.423284 135.340428,136.423284 C135.340428,136.423284 128.823383,137.341696 124.869965,137.341696 C120.916546,137.341696 114.399502,136.423284 114.399502,136.423284 C114.399502,136.423284 109.16427,125.613957 114.399502,122.010848 Z" id="Rectangle-96" fill="url(#radialGradient-41)"></path>
                            <path d="M118.336626,115.09363 C118.336626,115.09363 122.981874,115.09363 124.372779,115.09363 C125.763683,115.09363 126.574639,116.041698 126.574639,118.309666" id="Line" stroke="#796969" stroke-width="3.4992" stroke-linecap="square"></path>
                            <path d="M27.6954671,35.1467024 C27.6954671,35.1467024 42.4000405,36.7039117 52.5462119,36.7039117 C62.6923832,36.7039117 80.832549,35.1467024 80.832549,35.1467024 C80.832549,35.1467024 83.011469,48.0819609 90.6378005,62.2187118 C98.264132,76.3554627 110.04154,89.2907211 110.04154,89.2907211 L20.9732996,89.2907211 C20.9732996,89.2907211 27.6954671,72.014872 27.6954671,56.5614339 C27.6954671,41.1079958 27.6954671,35.1467024 27.6954671,35.1467024 Z" id="Rectangle" fill="url(#linearGradient-42)"></path>
                        </g>
                        <path d="M58.9808176,157.87684 L65.0374297,157.545684 C65.0374297,157.545684 63.6154214,162.639097 62.872477,164.708398 C62.1295325,166.7777 58.6168746,175.428665 58.6168746,175.428665 C58.6168746,175.428665 56.2159084,175.63356 55.0676137,175.428665 C53.9193191,175.223771 52.1963194,174.283023 52.1963194,174.283023 C52.1963194,174.283023 55.5933917,167.744313 57.3014586,163.613889 C59.0095254,159.483465 58.9808176,157.87684 58.9808176,157.87684 Z" id="Rectangle-9" stroke="none" fill="#1F4961" fill-rule="evenodd"></path>
                        <path d="M179.320775,173.208294 C179.618157,173.208294 179.849851,172.963972 179.849851,172.665973 C179.849851,172.367973 179.618157,172.123651 179.320775,172.123651 C179.023392,172.123651 178.779103,172.366296 178.779103,172.664295 C178.779103,172.962295 179.023392,173.208294 179.320775,173.208294 Z" id="Oval-2" stroke="none" fill="#9D4C2F" fill-rule="evenodd"></path>
                        <path d="M179.320775,182.381085 C179.618157,182.381085 179.849851,182.136763 179.849851,181.838763 C179.849851,181.540764 179.618157,181.296442 179.320775,181.296442 C179.023392,181.296442 178.779103,181.539086 178.779103,181.837086 C178.779103,182.135085 179.023392,182.381085 179.320775,182.381085 Z" id="Oval-2" stroke="none" fill="#9D4C2F" fill-rule="evenodd"></path>
                        <path d="M174.751815,178.28082 C175.049197,178.28082 175.30258,178.01262 175.30258,177.71462 C175.30258,177.416621 175.049197,177.14842 174.751815,177.14842 C174.454432,177.14842 174.209941,177.416621 174.209941,177.71462 C174.209941,178.01262 174.454432,178.28082 174.751815,178.28082 Z" id="Oval-2" stroke="none" fill="#9D4C2F" fill-rule="evenodd"></path>
                        <path d="M183.905609,178.28082 C184.202991,178.28082 184.456374,178.01262 184.456374,177.71462 C184.456374,177.416621 184.202991,177.14842 183.905609,177.14842 C183.608227,177.14842 183.363735,177.416621 183.363735,177.71462 C183.363735,178.01262 183.608227,178.28082 183.905609,178.28082 Z" id="Oval-2" stroke="none" fill="#9D4C2F" fill-rule="evenodd"></path>
                        <path d="M176.367392,181.350758 C176.664774,181.350758 176.918157,181.082557 176.918157,180.784558 C176.918157,180.486558 176.664774,180.218358 176.367392,180.218358 C176.070009,180.218358 175.825518,180.486558 175.825518,180.784558 C175.825518,181.082557 176.070009,181.350758 176.367392,181.350758 Z" id="Oval-2" stroke="none" fill="#9D4C2F" fill-rule="evenodd"></path>
                        <path d="M183.367352,181.350758 C183.664735,181.350758 183.918117,181.082557 183.918117,180.784558 C183.918117,180.486558 183.664735,180.218358 183.367352,180.218358 C183.06997,180.218358 182.825479,180.486558 182.825479,180.784558 C182.825479,181.082557 183.06997,181.350758 183.367352,181.350758 Z" id="Oval-2" stroke="none" fill="#9D4C2F" fill-rule="evenodd"></path>
                        <path d="M175.822434,175.073237 C176.119816,175.073237 176.372337,174.79615 176.372337,174.498151 C176.372337,174.200151 176.119816,173.95805 175.822434,173.95805 C175.525051,173.95805 175.268223,174.200151 175.268223,174.498151 C175.268223,174.79615 175.525051,175.073237 175.822434,175.073237 Z" id="Oval-2" stroke="none" fill="#9D4C2F" fill-rule="evenodd"></path>
                        <path d="M182.822394,174.533661 C183.119777,174.533661 183.372297,174.256574 183.372297,173.958575 C183.372297,173.660575 183.119777,173.418474 182.822394,173.418474 C182.525012,173.418474 182.268183,173.660575 182.268183,173.958575 C182.268183,174.256574 182.525012,174.533661 182.822394,174.533661 Z" id="Oval-2" stroke="none" fill="#9D4C2F" fill-rule="evenodd"></path>
                        <ellipse id="Oval-58" stroke="#9D4C2F" stroke-width="0.81" fill="none" cx="179.325498" cy="177.25069" rx="3.09498018" ry="3.10224349"></ellipse>
                        <g id="Group-2" stroke="none" stroke-width="1" fill="none" fill-rule="evenodd" transform="translate(179.594728, 173.203871)">
                            <ellipse id="Oval-16" stroke="#9D4C2F" stroke-width="2.916" cx="13.1850273" cy="13.2438607" rx="11.7270273" ry="11.7858607"></ellipse>
                            <g id="Oval-16">
                                <use fill="#9D4C2F" fill-rule="evenodd" xlink:href="#path-43"></use>
                                <ellipse stroke="#9D4C2F" stroke-width="2.916" cx="13.1850273" cy="13.2438607" rx="2.38763297" ry="2.4047927"></ellipse>
                            </g>
                            <path d="M13.1850273,0.689784411 L13.1850273,25.5220232" id="Line" stroke="#9D4C2E" stroke-width="2.3328" stroke-linecap="square"></path>
                            <path d="M21.7003575,4.41462023 L5.21907332,22.0731012" id="Line" stroke="#9D4C2E" stroke-width="2.3328" stroke-linecap="square"></path>
                            <path d="M24.4472382,13.5197745 L1.64812842,13.5197745" id="Line" stroke="#9D4C2E" stroke-width="2.3328" stroke-linecap="square"></path>
                            <path d="M22.4203418,21.2374241 L4.12032104,5.79418905" id="Line" stroke="#9D4C2E" stroke-width="2.3328" stroke-linecap="square"></path>
                        </g>
                        <ellipse id="Oval-58" stroke="#D26740" stroke-width="0.81" fill="none" cx="192.786961" cy="186.423481" rx="2.0180632" ry="2.02309165"></ellipse>
                        <g id="Group-4" stroke="none" stroke-width="1" fill="none" fill-rule="evenodd" transform="translate(192.517731, 182.916238)">
                            <ellipse id="Oval-59" fill="#D26740" cx="0.269229245" cy="0.269787961" rx="1" ry="1"></ellipse>
                            <ellipse id="Oval-59" fill="#D26740" cx="0.269229245" cy="6.74469903" rx="1" ry="1"></ellipse>
                        </g>
                        <g id="Group-4" stroke="none" stroke-width="1" fill="none" fill-rule="evenodd" transform="translate(192.786961, 186.423481) rotate(48.000000) translate(-192.786961, -186.423481) translate(192.517731, 182.916238)">
                            <ellipse id="Oval-59" fill="#D26740" cx="0.269229245" cy="0.269787961" rx="1" ry="1"></ellipse>
                            <ellipse id="Oval-59" fill="#D26740" cx="0.269229245" cy="6.74469903" rx="1" ry="1"></ellipse>
                        </g>
                        <g id="Group-4" stroke="none" stroke-width="1" fill="none" fill-rule="evenodd" transform="translate(192.786961, 186.423481) rotate(91.000000) translate(-192.786961, -186.423481) translate(192.517731, 182.916238)">
                            <ellipse id="Oval-59" fill="#D26740" cx="0.269229245" cy="0.269787961" rx="1" ry="1"></ellipse>
                            <ellipse id="Oval-59" fill="#D26740" cx="0.269229245" cy="6.74469903" rx="1" ry="1"></ellipse>
                        </g>
                        <g id="Group-4" stroke="none" stroke-width="1" fill="none" fill-rule="evenodd" transform="translate(192.786961, 186.423481) rotate(128.000000) translate(-192.786961, -186.423481) translate(192.517731, 182.916238)">
                            <ellipse id="Oval-59" fill="#D26740" cx="0.269229245" cy="0.269787961" rx="1" ry="1"></ellipse>
                            <ellipse id="Oval-59" fill="#D26740" cx="0.269229245" cy="6.74469903" rx="1" ry="1"></ellipse>
                        </g>
                        <g id="Group-5" stroke="none" stroke-width="1" fill="none" fill-rule="evenodd" transform="translate(203.825360, 144.606347)">
                            <ellipse id="Oval-60" fill="#796969" cx="0.269229245" cy="0.269787961" rx="1" ry="1"></ellipse>
                            <ellipse id="Oval-60" fill="#796969" cx="0.269229245" cy="6.2051231" rx="1" ry="1"></ellipse>
                        </g>
                        <g id="Group-5" stroke="none" stroke-width="1" fill="none" fill-rule="evenodd" transform="translate(204.094589, 147.843803) rotate(41.000000) translate(-204.094589, -147.843803) translate(203.825360, 144.606347)">
                            <ellipse id="Oval-60" fill="#796969" cx="0.269229245" cy="0.269787961" rx="1" ry="1"></ellipse>
                            <ellipse id="Oval-60" fill="#796969" cx="0.269229245" cy="6.2051231" rx="1" ry="1"></ellipse>
                        </g>
                        <g id="Group-5" stroke="none" stroke-width="1" fill="none" fill-rule="evenodd" transform="translate(204.094589, 147.843803) rotate(82.000000) translate(-204.094589, -147.843803) translate(203.825360, 144.606347)">
                            <ellipse id="Oval-60" fill="#796969" cx="0.269229245" cy="0.269787961" rx="1" ry="1"></ellipse>
                            <ellipse id="Oval-60" fill="#796969" cx="0.269229245" cy="6.2051231" rx="1" ry="1"></ellipse>
                        </g>
                        <g id="Group-5" stroke="none" stroke-width="1" fill="none" fill-rule="evenodd" transform="translate(204.094589, 147.843803) rotate(132.000000) translate(-204.094589, -147.843803) translate(203.825360, 144.606347)">
                            <ellipse id="Oval-60" fill="#796969" cx="0.269229245" cy="0.269787961" rx="1" ry="1"></ellipse>
                            <ellipse id="Oval-60" fill="#796969" cx="0.269229245" cy="6.2051231" rx="1" ry="1"></ellipse>
                        </g>
                        <polygon id="Rectangle-119" stroke="none" fill="#1F4A63" fill-rule="evenodd" points="149.293165 101.053299 152.133345 102.519425 157.384804 123.02331 154.380299 123.02331"></polygon>
                        <g id="Group-10" stroke="none" stroke-width="1" fill="none" fill-rule="evenodd" transform="translate(102.056705, 58.813776)">
                            <g id="Group-9" transform="translate(12.384545, 16.726854)">
                                <path d="M6.73073111,24.4984805 L6.73073111,20.4507914 C6.73073111,20.4507914 6.55318969,11.0641828 6.73073111,9.23118352 C7.06448724,5.78536942 3.34720203,0.209626893 3.34720203,0.209626893" id="Line" stroke="#979797" stroke-width="4.05" stroke-linecap="square"></path>
                                <path d="M1.82034605,26.0991279 C2.28152986,25.0858457 10.6951806,25.1419843 11.2200334,26.0991279 C11.7448862,27.0562714 11.2200334,30.2162516 11.2200334,30.2162516 L1.82034605,30.2162516 C1.82034605,30.2162516 1.35916224,27.11241 1.82034605,26.0991279 Z" id="Rectangle-120" fill="#9D4C2F"></path>
                                <path d="M0.270058709,29.5712707 C0.877690806,28.2362222 11.9630849,28.3101876 12.654604,29.5712707 C13.346123,30.8323539 12.654604,34.9957815 12.654604,34.9957815 L0.270058709,34.9957815 C0.270058709,34.9957815 -0.337573387,30.9063192 0.270058709,29.5712707 Z" id="Rectangle-120" fill="#D26740"></path>
                            </g>
                            <ellipse id="Oval-3" fill="url(#linearGradient-44)" transform="translate(12.327244, 11.450130) rotate(-37.000000) translate(-12.327244, -11.450130) " cx="12.3272441" cy="11.4501296" rx="10.7691698" ry="6.2051231"></ellipse>
                            <path d="M11.1653687,14.4405458 C16.9643257,14.4405458 21.3483103,11.4328271 21.3483103,9.94282936 C21.3483103,8.4528316 16.7568618,5.66709083 10.9579048,5.66709083 C5.15894778,5.66709083 0.905660363,8.89063604 0.905660363,10.3806338 C0.905660363,11.8706316 5.36641167,14.4405458 11.1653687,14.4405458 Z" id="Oval-4" fill="#9D4C2F" transform="translate(11.126985, 10.053818) rotate(-37.000000) translate(-11.126985, -10.053818) "></path>
                            <path d="M6.57007462,6.99210888 C5.7519914,5.85099619 14.9769381,12.563926 14.9769381,12.563926 C14.9769381,12.563926 14.1347204,13.2678495 13.5742053,13.7054196 C13.0136903,14.1429898 12.3937194,14.5285785 12.3937194,14.5285785 C12.3937194,14.5285785 7.38815784,8.13322157 6.57007462,6.99210888 Z" id="Rectangle-10" fill="#979797"></path>
                            <path d="M6.17618549,7.43672097 C6.62225911,7.43672097 7.00409439,7.05829874 7.00409439,6.61129941 C7.00409439,6.16430008 6.63834624,5.80362142 6.19227262,5.80362142 C5.74619901,5.80362142 5.34827659,6.16430008 5.34827659,6.61129941 C5.34827659,7.05829874 5.73011187,7.43672097 6.17618549,7.43672097 Z" id="Oval-5" fill="#D57A59"></path>
                        </g>
                        <path d="M124.671962,118.706703 L130.595005,118.706703 C130.595005,118.706703 132.670383,125.516907 134.284661,129.196839 C135.898939,132.876771 141.956417,144.606347 141.956417,144.606347 L135.440981,145.169 C135.440981,145.169 130.716604,135.081169 128.672568,130.058438 C126.628532,125.035707 124.671962,118.706703 124.671962,118.706703 Z" id="Rectangle-117" stroke="none" fill="#1E4961" fill-rule="evenodd"></path>
                        <path d="M77.8260732,112.231792 C77.8260732,112.231792 79.0521649,112.438488 80.2491364,112.57262 C81.4461079,112.706752 82.6721996,112.70756 82.6721996,112.70756 L82.6721996,125.72119 L77.8260732,125.72119 L77.8260732,112.231792 Z" id="Rectangle-118" stroke="none" fill="#2B678A" fill-rule="evenodd"></path>
                        <g id="Group-8" stroke="none" stroke-width="1" fill="none" fill-rule="evenodd" transform="translate(124.671962, 24.280916)">
                            <path d="M10.247762,8.48462248 C11.2925451,7.25091259 12.4595516,6.86234063 14.6958154,7.60911844 C16.9320792,8.35589625 17.0159593,12.2890268 18.896279,12.1414743 C19.4625894,12.0970348 20.6550859,11.2772775 21.001483,9.9607331 C21.0121209,9.92030173 20.6408122,10.1328404 20.6385032,9.9607331 C20.6361943,9.78862585 21.001483,9.18785209 21.001483,9.18785209 C21.001483,9.18785209 20.7460756,9.25128834 20.7391996,9.11739879 C20.7208678,8.7604382 20.9562372,8.30196008 20.9562372,8.30196008 C20.9562372,8.30196008 20.7343329,8.3344674 20.7391996,8.1662416 C20.7584257,7.5016627 21.1829541,6.99981461 21.1829541,6.99981461 C21.1829541,6.99981461 20.9906676,6.97834974 20.9562372,6.87740481 C20.9218067,6.77645988 21.165928,6.08339906 21.2399054,5.86165916 C21.8791249,3.94566015 22.6910741,2.46027594 22.6910741,2.46027594 C22.6910741,2.46027594 21.7586365,3.29348584 21.2912162,2.95598357 C21.1310169,2.84031114 20.335425,2.28730843 20.7751609,2.35086334 C20.848592,2.36147631 21.0709838,2.37372006 21.2399054,2.26751887 C21.2716889,2.24753651 20.7211955,1.75598537 20.8387163,1.60706732 C20.9562372,1.45814927 21.5374079,1.99625597 21.8079815,1.86767391 C21.8591336,1.84336538 21.2288827,0.943058281 21.3776905,0.809975183 C21.5264983,0.676892085 22.0823773,1.41554807 22.3907625,1.3542872 C22.4536429,1.34179598 22.0613609,0.394146347 22.205826,0.303835823 C22.3502911,0.213525298 22.7367257,1.02812358 22.9350206,0.912414255 C22.9773636,0.8877062 22.5828652,0.101009438 22.7247214,0.0566980447 C22.7785627,0.0398797211 23.2020226,0.686058819 23.3903275,0.643881917 C23.4559039,0.629193986 23.441161,0.0266969846 23.5744053,0.000291196514 C23.635996,-0.0119145786 23.7921624,0.363026093 23.9377889,0.478831078 C24.0052114,0.532446691 24.3095455,0.63313812 24.4504592,0.809975183 C24.5913729,0.986812246 24.6116103,1.29617927 24.6212777,1.30610394 C24.784447,1.47361463 25.364416,1.24731962 25.5228284,1.4590061 C25.537392,1.47846742 24.3501188,1.89314464 24.4504592,2.26751887 C24.459796,2.30235473 25.4709626,2.31106646 25.5580164,2.39802602 C25.6450701,2.48498558 24.8456516,2.5385683 24.8887796,2.70536493 C24.8958253,2.73261405 25.6265851,3.86694213 25.6265851,3.86694213 C25.6265851,3.86694213 25.8184272,4.58637547 25.6265851,4.86800917 C25.4347431,5.14964287 24.9898675,4.93561269 24.9898675,4.93561269 C24.9898675,4.93561269 25.297923,5.72771017 25.4016807,6.12433848 C25.5054384,6.52096679 25.5580164,7.10744065 25.5580164,7.10744065 C25.5580164,7.10744065 25.970274,7.38953957 25.970274,7.51321378 C25.970274,7.636888 25.854428,7.66986779 25.854428,7.66986779 C25.854428,7.66986779 26.2343986,7.89557323 26.2122212,7.98906078 C26.1900438,8.08254832 26.0004578,8.12410167 26.0004578,8.12410167 C26.0004578,8.12410167 27.0803387,9.04439798 27.0976893,10.0861697 C27.11504,11.1279413 26.0759056,12.9183686 25.854428,13.9090031 C25.8244112,14.0432635 25.8703833,14.8801239 25.5228284,15.6993007 C25.3720799,16.0546106 24.9184146,16.6910262 24.5770649,17.3024078 C24.2357152,17.9137894 23.797486,18.8669688 23.7691344,19.0199701 C23.6896986,19.4486505 23.8518383,20.0337405 23.8518383,20.3909922 C23.8518383,20.7102636 23.5744053,21.0616833 23.5744053,21.0616833 C23.5744053,21.0616833 23.8588647,23.604969 24.3991656,23.8774386 C24.7158989,24.0371647 25.8451693,24.2135945 26.2122212,24.2538147 C26.5792731,24.2940348 26.4819711,24.8535369 26.4819711,24.8535369 C26.4819711,24.8535369 26.2869302,24.6797431 25.8840727,24.5867849 C25.4812152,24.4938266 25.1294631,24.5270274 24.934491,24.528619 C24.8919784,24.528966 24.9782821,24.7482646 24.6839145,24.7556064 C24.6517828,24.7564078 24.4129803,24.7601202 24.0130081,24.7660987 C23.9088052,24.7676562 23.7449775,24.2519609 23.6197009,24.2538147 C23.6082528,24.2539841 23.5641697,24.7439493 23.3006085,24.7556064 C23.2530868,24.7577082 22.6846178,24.7674725 21.7846065,24.7820678 C21.6920373,24.783569 21.6909795,24.3602899 21.5916017,24.3618902 C21.581939,24.3620458 21.356815,24.7708265 21.0972859,24.7820678 C21.0831778,24.7826789 20.5646642,24.7556064 20.5646642,24.7556064 L21.3776905,23.8774386 C21.3776905,23.8774386 21.4355582,23.6792303 21.3776905,23.5837416 C21.3489443,23.5363069 21.0152145,23.480287 20.8387163,23.2203186 C20.6622181,22.9603503 20.4382901,22.4425324 20.6385032,22.4899152 C20.7208556,22.5094048 20.8552159,22.6511562 21.001483,22.7617053 C21.1477501,22.8722543 21.4314348,23.0486274 21.4474883,22.9560028 C21.4580745,22.8949229 21.3305587,22.2874721 21.2912162,21.5678503 C21.2746229,21.2643387 20.9642473,20.7294277 20.9562372,20.2518381 C20.948227,19.7742485 21.2399054,19.0199701 21.2399054,19.0199701 C21.2399054,19.0199701 20.788339,18.9693104 20.5646642,18.8920221 C20.3409895,18.8147338 20.337704,18.7118357 20.2517601,18.6785275 C20.1658161,18.6452194 20.1113497,18.713878 19.9631789,18.6576741 C19.7799371,18.5881673 19.8663541,18.2900221 19.8434845,18.2955069 C19.7485703,18.3182701 19.6774,18.7178579 19.5710011,18.6992152 C19.3065272,18.6528752 19.4484175,17.9001935 19.425118,17.8970221 C19.3585917,17.8879668 19.3622769,18.1038988 19.3175034,18.2727436 C19.27273,18.4415884 19.1888754,18.5187833 19.1726516,18.5105686 C18.9483568,18.3969999 19.072637,17.8553872 18.9696112,17.870437 C18.9012141,17.8804283 18.9557817,18.1804261 18.9213662,18.3839127 C18.8869507,18.5873993 18.8318007,18.5615375 18.7743857,18.5687464 C18.5443584,18.5976284 18.7174504,17.9374945 18.6350597,17.9138293 C18.6001235,17.9037945 18.5938536,18.0327398 18.5720452,18.1608879 C18.5502367,18.289036 18.4967401,18.5200406 18.4288555,18.4694993 C18.3770702,18.4309442 18.3322382,18.264498 18.3117202,18.088918 C18.2912021,17.9133381 18.2869443,17.6257162 18.2344027,17.6155327 C18.140683,17.5973681 18.2039779,18.367925 18.0718946,18.3839127 C17.9398112,18.3999004 17.8543905,17.9966143 17.721655,17.6775969 C17.5889194,17.3585794 17.6187702,17.2444341 17.5708108,17.3024078 C17.4551189,17.4422573 17.5975505,18.887585 17.4189023,18.775437 C17.2402542,18.6632891 17.1326205,17.0235535 17.0118739,17.0020793 C16.9659074,16.9939044 16.9717794,17.2161947 16.9682215,17.4953491 C16.9646636,17.7745035 16.9668883,18.7169443 16.8739913,18.6785275 C16.7301097,18.6190265 16.5036419,16.7801324 16.475176,16.7801324 C16.3189314,16.7801324 16.2162881,17.8471197 16.0191179,17.8471197 C15.8219478,17.8471197 15.9329574,16.890514 15.8749956,16.8953474 C15.5355214,16.923656 15.409029,17.4089427 15.1855853,17.3651594 C14.9621416,17.3213761 14.7264621,16.7561568 14.6188991,16.2930765 C14.511336,15.8299961 14.5801535,15.5430743 14.5801535,15.5430743 C14.5801535,15.5430743 14.4297589,15.7189719 14.3964457,16.0336032 C14.3868024,16.1246807 14.4972482,16.4242535 14.4820837,16.705918 C14.4669193,16.9875825 14.3964457,18.3233294 14.2556976,18.3233294 C13.9643076,18.3233294 14.044635,17.7743575 13.9238679,17.5689892 C13.8031007,17.3636209 13.3607018,16.7482824 13.3607018,16.7482824 C13.3607018,16.7482824 13.5719395,17.7195054 13.4307926,17.8471197 C13.2896456,17.974734 13.0577723,17.6102986 12.9272905,17.4368367 C12.7968087,17.2633748 12.4441328,16.6651353 12.4441328,16.6651353 C12.4441328,16.6651353 12.3990096,16.9843888 12.4159596,17.1625583 C12.4329096,17.3407279 12.7990501,17.9209053 12.5649551,17.9351569 C12.33086,17.9494084 12.032491,17.7570861 11.6875106,17.2470951 C11.3425301,16.7371041 11.0944718,15.7627668 11.0742829,15.7627668 C11.0234673,15.7627668 10.9120234,16.0838221 11.019691,16.4586306 C11.1273586,16.833439 11.506586,17.4361212 11.5937578,17.8970221 C11.7549198,18.7491295 11.494581,18.6430113 11.494581,18.6430113 C11.494581,18.6430113 11.272434,18.1818696 10.9748691,17.8006299 C10.6773042,17.4193903 10.6029646,17.4379803 10.4370469,17.2027465 C9.98163272,16.5570721 9.95378918,16.3883784 9.92778249,16.3328886 C9.74309488,15.9388258 9.97874365,16.999474 10.0923955,17.3024078 C10.2060474,17.6053416 9.84621017,17.5109844 9.80609689,17.4661665 C9.14251039,16.7247529 8.5216004,14.8613386 8.62710466,12.6907054 C8.73260893,10.5200722 9.6549289,9.18465682 10.247762,8.48462248 Z M10.1391975,10.9538675 C9.94490988,11.2096354 9.62121729,11.5860599 9.50464441,12.5037046 C9.38807154,13.4213492 9.47609689,14.5902268 9.63051167,14.6669245 C9.82492098,14.7634874 9.80956891,13.8148476 9.86418974,13.4463851 C9.91881056,13.0779227 10.0615093,12.456614 10.097775,12.2788397 C10.1944938,11.8047243 10.3580772,11.5710748 10.5079294,11.182941 C10.6577816,10.7948073 10.3334852,10.6980997 10.1391975,10.9538675 Z M10.9104014,12.6234538 C10.73918,12.6727828 10.7204463,12.8526865 10.7265317,12.9299868 C10.7326172,13.007287 10.786025,13.1039548 10.7485452,13.1799966 C10.6414178,13.3973441 10.5762168,13.2807644 10.5122685,13.4776767 C10.4483202,13.674589 10.4116893,13.8864541 10.5882886,13.9245248 C10.7648878,13.9625956 10.9355631,13.6125192 11.0060355,13.3167232 C11.0765079,13.0209272 11.1737633,12.5475791 10.9104014,12.6234538 Z M22.5135907,20.0490294 C22.4551633,20.0490294 22.2202337,20.1747928 22.2202337,20.518824 C22.2202337,20.6004676 22.2209404,20.8938393 22.1783935,21.1586341 C22.1358466,21.423429 21.9788723,21.4099253 21.9788723,21.8904531 C21.9788723,22.370981 21.9931574,23.5675853 22.2202337,24.0084019 C22.402561,24.3623488 22.4662096,24.0784605 22.7762272,24.0605764 C23.0862448,24.0426923 23.433287,24.0960813 23.4622918,23.8076296 C23.4663684,23.7670875 23.4354254,23.636312 23.4616804,23.6370531 C23.4616804,23.6370531 23.0169843,23.5236359 22.8471418,23.4008832 C22.6772993,23.2781304 22.4740326,22.8773302 22.5729966,22.9947618 C22.6719607,23.1121934 23.3016972,23.6824469 23.3416501,22.8174088 C23.3566086,22.4935367 23.1931627,22.4253002 22.9843369,21.6557067 C22.775511,20.8861131 22.622564,20.0490294 22.5135907,20.0490294 Z" id="Combined-Shape" fill="url(#linearGradient-45)"></path>
                            <path d="M0,22.1226128 L1.15271782,22.1226128 C1.15271782,22.1226128 1.51364201,22.4300892 1.59108845,22.4300892 C1.60133406,22.4300892 1.50063514,22.1226128 1.50063514,22.1226128 L2.50928092,22.1226128 C2.50928092,22.1226128 2.92021785,22.4761018 2.98908139,22.4761018 C3.00031175,22.4761018 2.87782705,22.1226128 2.87782705,22.1226128 L3.97471052,22.1226128 C3.97471052,22.1226128 4.28822462,22.4761018 4.35977702,22.4761018 C4.37346278,22.4761018 4.29186713,22.1226128 4.29186713,22.1226128 L5.24742402,22.1226128 C5.24742402,22.1226128 5.54130585,22.4761018 5.72391182,22.4761018 C5.77411266,22.4761018 5.64305237,22.1226128 5.64305237,22.1226128 L7.08525363,22.1226128 C7.08525363,22.1226128 8.20354251,23.6325433 8.8251243,24.2928771 C9.44670609,24.9532108 10.8229561,26.0933391 10.8229561,26.0933391 L15.4611594,26.0118093 C15.4611594,26.0118093 19.3868884,24.5171875 24.1146446,24.5171875 C28.8424009,24.5171875 33.4308965,25.8464432 33.4308965,25.8464432 L40.6269596,25.7802217 C40.6269596,25.7802217 40.595476,25.3306374 40.2959579,24.9445075 C40.1540175,24.7615222 39.5538696,24.5275206 39.4672949,24.2928771 C39.4283569,24.1873434 39.3205659,24.0983936 39.4672949,23.9050307 C39.6140238,23.7116677 39.7963244,23.7797308 39.7963244,23.7797308 C39.7963244,23.7797308 45.1632789,26.0933391 45.1632789,26.0933391 C45.1632789,26.0933391 45.2626424,26.2541544 45.2197815,26.3959688 C45.1769205,26.5377833 45.0338356,26.5772183 44.9766848,26.6069127 C44.8353289,26.6803585 39.7963244,28.8819045 39.7963244,28.8819045 C39.7963244,28.8819045 39.6510142,28.884897 39.5479689,28.8200769 C39.4449237,28.7552567 39.4045989,28.6448355 39.4226173,28.5248337 C39.4609305,28.2696697 39.9118992,27.9721109 40.0761681,27.8190943 C40.444142,27.4763262 40.5635345,27.0055492 40.5635345,27.0055492 L10.8229561,27.2770257 C10.8229561,27.2770257 9.78160144,28.0937302 9.04242982,28.8819045 C8.3032582,29.6700789 7.38211104,31.2464745 7.38211104,31.2464745 L5.98543686,31.2464745 C5.98543686,31.2464745 5.99229871,30.9069752 5.92539746,30.9069752 C5.85849621,30.9069752 5.48275363,31.2464745 5.48275363,31.2464745 L4.59085773,31.2464745 C4.59085773,31.2464745 4.72241783,30.8966098 4.59085773,30.9069752 C4.45929763,30.9173407 4.10208181,31.2849846 4.10208181,31.2849846 L3.21466865,31.2954035 C3.21466865,31.2954035 3.28855145,30.9524306 3.17138899,30.9505506 C3.05422652,30.9486706 2.74689668,31.2878976 2.74689668,31.2878976 L1.90699666,31.2954035 C1.90699666,31.2954035 1.96005827,30.9069752 1.87810732,30.9069752 C1.79615637,30.9069752 1.40212824,31.2879428 1.40212824,31.2879428 L0.326243583,31.2954035 L2.64041282,27.340735 L3.40141081,26.7114418 L2.50275907,26.0933391 L0,22.1226128 Z" id="Rectangle-15" fill="url(#linearGradient-46)"></path>
                            <g id="Group-7" transform="translate(21.538340, 26.978796)" fill="url(#linearGradient-47)">
                                <g id="Group-6">
                                    <rect id="Rectangle-20" x="0.59828721" y="16.3475477" width="1.49571803" height="11.1708243"></rect>
                                    <rect id="Rectangle-16" x="0.897430815" y="0" width="1" height="5.44918258"></rect>
                                    <rect id="Rectangle-17" x="0" y="5.44918258" width="2.69229245" height="1.08983652" rx="0.544918258"></rect>
                                    <polygon id="Rectangle-18" points="0.59828721 6.81147822 0.900505462 6.52296947 1.79775396 6.52296947 2.09400524 6.81147822 2.09400524 13.353395 0.59828721 13.353395"></polygon>
                                    <rect id="Rectangle-19" x="0.299143605" y="13.3504973" width="2.09400524" height="2.99705042" rx="0.405"></rect>
                                </g>
                            </g>
                        </g>
                        <g id="Group-38" stroke="none" stroke-width="1" fill="none" fill-rule="evenodd" transform="translate(72.912844, 189.564220)">
                            <path d="M0.302608381,5.16728765 C-1.06699905,3.1755726 3.88375727,6.64374269 5.44438283,10.491372 C7.00500839,14.3390012 6.82272082,20.3577558 6.82272082,20.3577558 L4.5153261,20.3577558 C4.5153261,20.3577558 4.06423778,15.3542886 3.45683842,12.5958143 C2.84943907,9.8373401 1.71437705,7.22031455 0.302608381,5.16728765 Z" id="Rectangle-127" fill="url(#linearGradient-48)"></path>
                            <path d="M5.32733074,0.90720169 C4.53743878,-1.39207895 6.81929959,1.32038004 8.37992515,5.16800931 C9.94055071,9.01563858 9.46403689,20.3577558 9.46403689,20.3577558 L6.55264744,20.3577558 C6.55264744,20.3577558 6.95572341,13.2020426 6.74297461,10.209695 C6.53022581,7.21734746 6.11722271,3.20648233 5.32733074,0.90720169 Z" id="Rectangle-127" fill="url(#linearGradient-48)" transform="translate(7.349158, 10.209695) scale(-1, 1) translate(-7.349158, -10.209695) "></path>
                            <path d="M11.7553204,8.41566245 C12.0411204,8.41566245 10.3324094,11.1662279 9.5667758,14.2624483 C8.80114221,17.3586686 9.18710069,20.3287867 9.18710069,20.3287867 L6.58698983,20.3287867 C6.58698983,20.3287867 6.95737384,16.1258888 8.30087929,12.8704874 C9.64438474,9.6150861 11.522545,8.41566245 11.7553204,8.41566245 Z" id="Rectangle-128" fill="url(#linearGradient-49)"></path>
                            <path d="M1.52833291,13.2120014 C1.75889073,13.2120014 3.0106164,14.1974031 3.66837019,15.4097388 C4.32612398,16.6220745 6.23388312,20.4529817 6.23388312,20.4529817 L3.50245648,20.4529817 C3.50245648,20.4529817 3.31448385,18.5196248 2.78784394,16.6686748 C2.26120402,14.8177248 1.21749512,13.2120014 1.52833291,13.2120014 Z" id="Rectangle-129" fill="url(#linearGradient-50)"></path>
                            <path d="M11.4494888,16.1055721 C11.8164967,16.1055721 10.7019326,17.3204245 9.98071276,18.4919383 C9.25949295,19.6634521 9.16453929,20.4529817 9.16453929,20.4529817 L6.05205425,20.4529817 C6.05205425,20.4529817 6.54514325,18.9343022 7.8526623,17.8154802 C9.16018134,16.6966581 11.1217788,16.1055721 11.4494888,16.1055721 Z" id="Rectangle-130" fill="url(#linearGradient-50)"></path>
                        </g>
                        <g id="Group-38" stroke="none" stroke-width="1" fill="none" fill-rule="evenodd" transform="translate(102.740826, 195.550459)">
                            <path d="M0.218550498,3.66710736 C-0.770610428,2.25363217 2.80493581,4.71491417 3.93205427,7.44548978 C5.05917273,10.1760654 4.92752059,14.4474396 4.92752059,14.4474396 L3.26106885,14.4474396 C3.26106885,14.4474396 2.93528284,10.8965919 2.49660553,8.93896502 C2.05792822,6.98133813 1.23816121,5.1240942 0.218550498,3.66710736 Z" id="Rectangle-127" fill="url(#linearGradient-48)"></path>
                            <path d="M3.84751665,0.643820554 C3.27703912,-0.987926999 4.9250497,0.937043903 6.05216816,3.66761951 C7.17928663,6.39819512 6.83513776,14.4474396 6.83513776,14.4474396 L4.7324676,14.4474396 C4.7324676,14.4474396 5.02357802,9.36919155 4.86992611,7.24559004 C4.71627419,5.12198852 4.41799418,2.27556811 3.84751665,0.643820554 Z" id="Rectangle-127" fill="url(#linearGradient-48)" transform="translate(5.307725, 7.245590) scale(-1, 1) translate(-5.307725, -7.245590) "></path>
                            <path d="M8.48995365,5.97240561 C8.69636473,5.97240561 7.46229567,7.9244198 6.90933808,10.1217375 C6.35638049,12.3190551 6.63512827,14.4268809 6.63512827,14.4268809 L4.75727043,14.4268809 C4.75727043,14.4268809 5.02476999,11.4441791 5.99507948,9.13389432 C6.96538898,6.82360949 8.32183806,5.97240561 8.48995365,5.97240561 Z" id="Rectangle-128" fill="url(#linearGradient-49)"></path>
                            <path d="M1.10379599,9.37625905 C1.27030997,9.37625905 2.17433406,10.0755764 2.64937847,10.9359437 C3.12442287,11.796311 4.50224892,14.5150192 4.50224892,14.5150192 L2.5295519,14.5150192 C2.5295519,14.5150192 2.39379389,13.1429595 2.01344284,11.8293821 C1.63309179,10.5158047 0.87930203,9.37625905 1.10379599,9.37625905 Z" id="Rectangle-129" fill="url(#linearGradient-50)"></path>
                            <path d="M8.26907525,11.4297608 C8.53413651,11.4297608 7.72917352,12.2919142 7.20829255,13.1233111 C6.68741158,13.9547079 6.61883393,14.5150192 6.61883393,14.5150192 L4.37092807,14.5150192 C4.37092807,14.5150192 4.72704791,13.4372467 5.67136721,12.643244 C6.61568652,11.8492412 8.03239584,11.4297608 8.26907525,11.4297608 Z" id="Rectangle-130" fill="url(#linearGradient-50)"></path>
                        </g>
                    </g>
                </g>
            </g>
        </g>
    </g>
</svg>